<svg width="61" height="63" fill="none" xmlns="http://www.w3.org/2000/svg"><path d="M56.661 41.349l-5.895-4.192c.99-3.641.984-7.48-.017-11.119l5.915-4.14-4.722-8.17-6.578 3.009a21.073 21.073 0 00-9.64-5.545L35.098 4h-9.444l-.627 7.192a21.07 21.07 0 00-9.637 5.548l-6.58-3.01-4.72 8.171 5.915 4.14a21.07 21.07 0 00-.02 11.116L4.09 41.349l4.72 8.132 6.58-3.013a21.07 21.07 0 009.637 5.544l.627 7.193h9.444l.628-7.193a21.073 21.073 0 009.636-5.544l6.581 3.012 4.722-8.128-.003-.003zM36.891.701a1.625 1.625 0 011.625 1.55l.579 6.614a24.213 24.213 0 016.64 3.829l6.012-2.805a1.625 1.625 0 012.152.634L60.415 21.8a1.625 1.625 0 01-.527 2.181l-5.44 3.809c.416 2.594.403 5.177.003 7.667l5.437 3.802a1.625 1.625 0 01.527 2.184L53.899 52.68a1.625 1.625 0 01-2.152.633l-6.012-2.804a24.207 24.207 0 01-6.64 3.831l-.579 6.614a1.625 1.625 0 01-1.625 1.547H23.86a1.625 1.625 0 01-1.625-1.547l-.579-6.614a24.222 24.222 0 01-6.64-3.831l-6.012 2.804a1.625 1.625 0 01-2.155-.63L.335 41.44a1.625 1.625 0 01.527-2.18l5.437-3.806a24.212 24.212 0 010-7.667L.865 23.98a1.625 1.625 0 01-.526-2.178l6.506-11.28A1.625 1.625 0 019 9.889l6.012 2.805a24.213 24.213 0 016.64-3.829l.579-6.613a1.625 1.625 0 011.625-1.55H36.89zM30.375 20.25a11.375 11.375 0 110 22.75 11.375 11.375 0 010-22.75zm0 3.25a8.125 8.125 0 100 16.25 8.125 8.125 0 000-16.25z" fill="#000"/></svg>