<svg width="27" height="27" fill="none" xmlns="http://www.w3.org/2000/svg"><g clip-path="url(#clip0_21146_425)" fill="#6E9C9F"><path d="M8.252 7.816a3.856 3.856 0 000 5.448l.798-.798a2.727 2.727 0 010-3.852 2.727 2.727 0 013.852 0l.798-.798a3.856 3.856 0 00-5.448 0z"/><path d="M9.841 9.391a1.623 1.623 0 000 2.293l.798-.797a.49.49 0 010-.698.49.49 0 01.698 0l.797-.798a1.623 1.623 0 00-2.293 0zm9.907-1.956l-1.893-1.887-3.932 3.926 1.525 1.574a10.79 10.79 0 01-1.755 2.267 10.917 10.917 0 01-2.277 1.764l-1.543-1.523-3.87 3.847 1.882 1.895c.72.72 1.815.907 2.725.465 1.39-.675 3.486-1.92 5.584-4.019 2.1-2.098 3.344-4.195 4.018-5.584.16-.329.238-.682.238-1.033 0-.62-.242-1.232-.702-1.692zm-.55 2.232c-.637 1.312-1.814 3.292-3.801 5.28-1.988 1.988-3.969 3.164-5.28 3.8a1.255 1.255 0 01-1.433-.245l-1.087-1.094 2.278-2.264 1.315 1.298.352-.157c.057-.026 1.418-.641 2.95-2.173 1.532-1.533 2.135-2.882 2.16-2.938l.152-.347-1.297-1.34 2.349-2.345 1.095 1.091c.38.38.479.957.247 1.434z"/></g><defs><clipPath id="clip0_21146_425"><path fill="#fff" transform="translate(6 3)" d="M0 0h17v17H0z"/></clipPath></defs></svg>