<svg width="23" height="19" fill="none" xmlns="http://www.w3.org/2000/svg"><path d="M20.271 3.165l-.011-.044a4.867 4.867 0 002.11-2.65 9.815 9.815 0 01-3.055 1.168C18.456.72 17.306.156 15.947.156c-2.604 0-4.761 2.109-4.761 4.717 0 .371.052.735.134 1.078v.045C7.44 5.774 3.924 3.8 1.617.965c-.405.697-.629 1.694-.629 2.56 0 1.348.8 3.153 2.067 3.998v.09c-.756-.03-1.53-.551-2.157-.898 0 .02.028.045.028.066 0 2.289 1.677 4.263 3.836 4.696-.376.1-.906.18-1.303.18-.305 0-.61-.08-.898-.136.6 1.877 2.335 3.1 4.402 3.1v.045c-1.609 1.247-3.647 2.111-5.84 2.111-.38 0-.853-.045-1.123-.09 2.086 1.34 4.566 2.157 7.232 2.157 8.678 0 13.432-7.143 13.432-13.387v-.629c.923-.667 1.705-1.567 2.336-2.516 0 0-1.656.785-2.729.853zm-1.404 2.292c0 1.348-.264 2.764-.764 4.094a11.977 11.977 0 01-2.246 3.75c-1.514 1.709-4.239 3.746-8.625 3.746-.128 0-.257-.002-.386-.007.424-.245.83-.519 1.218-.82l.696-.539v-2.857l-.74-.008a1.477 1.477 0 01-1.461-1.477v-1.47l-.972-.219a.943.943 0 01-.735-.92V7.48l-.023-.916-.799-.534a3.666 3.666 0 01-.88-1.154c2.357 1.72 5.158 2.749 8.068 2.915l1.9.109V5.74l-.05-.207a2.857 2.857 0 01-.086-.659c0-.774.31-1.504.87-2.057a2.968 2.968 0 012.095-.863c.796 0 1.49.308 2.06.915l.458.489.055.214.012.044.335 1.298v.544z" fill="#000"/></svg>