<svg width="21" height="21" fill="none" xmlns="http://www.w3.org/2000/svg"><g clip-path="url(#clip0_4_303)"><path d="M18.54 0H2.46A2.464 2.464 0 000 2.46v16.08A2.464 2.464 0 002.46 21h16.08A2.464 2.464 0 0021 18.54V2.46A2.464 2.464 0 0018.54 0zm.82 18.54c0 .451-.369.82-.82.82H13.7v-5.99h2.625l.306-2.543H13.7V8.08c0-.701.53-1.23 1.23-1.23h1.846V4.47c-.485-.068-1.422-.163-1.845-.163-.957 0-1.916.403-2.631 1.107-.737.725-1.143 1.674-1.143 2.673v2.741H8.49v2.543h2.666v5.988H2.461a.821.821 0 01-.82-.82V2.461c0-.452.368-.82.82-.82h16.078c.452 0 .82.368.82.82v16.078z" fill="#000"/></g><defs><clipPath id="clip0_4_303"><path fill="#fff" d="M0 0h21v21H0z"/></clipPath></defs></svg>