<svg width="22" height="23" fill="none" xmlns="http://www.w3.org/2000/svg"><g clip-path="url(#clip0_4_278)" fill="#000"><path d="M15.61.5H6.39A6.398 6.398 0 000 6.89v9.22a6.398 6.398 0 006.39 6.39h9.22A6.398 6.398 0 0022 16.11V6.89A6.398 6.398 0 0015.61.5zm4.671 15.61a4.677 4.677 0 01-4.672 4.671H6.391a4.677 4.677 0 01-4.672-4.672V6.891A4.677 4.677 0 016.39 2.219h9.218a4.677 4.677 0 014.672 4.672v9.218z"/><path d="M11 5.57c-3.27 0-5.93 2.66-5.93 5.93 0 3.27 2.66 5.93 5.93 5.93 3.27 0 5.93-2.66 5.93-5.93 0-3.27-2.66-5.93-5.93-5.93zm0 10.14a4.216 4.216 0 01-4.21-4.21A4.216 4.216 0 0111 7.29a4.216 4.216 0 014.21 4.21A4.216 4.216 0 0111 15.71zm6.016-9.366a.86.86 0 100-1.72.86.86 0 000 1.72z"/></g><defs><clipPath id="clip0_4_278"><path fill="#fff" transform="translate(0 .5)" d="M0 0h22v22H0z"/></clipPath></defs></svg>