<svg width="96" height="96" fill="none" xmlns="http://www.w3.org/2000/svg"><path fill-rule="evenodd" clip-rule="evenodd" d="M65.122 36.876a2.999 2.999 0 010 4.248l-18 18a2.998 2.998 0 01-4.248 0l-9-9a3.004 3.004 0 014.248-4.248l6.876 6.882 15.876-15.882a3 3 0 014.248 0z" fill="#6E9C9F"/><path fill-rule="evenodd" clip-rule="evenodd" d="M24 6h48a12 12 0 0112 12v60a12 12 0 01-12 12H24a12 12 0 01-12-12V18A12 12 0 0124 6zm0 6a6 6 0 00-6 6v60a6 6 0 006 6h48a6 6 0 006-6V18a6 6 0 00-6-6H24z" fill="#6E9C9F"/></svg>